<svg width="180" height="40" viewBox="0 0 868 138" fill="none" xmlns="http://www.w3.org/2000/svg">
<rect x="5" y="5" width="341" height="128" rx="64" fill="#FF5F2F" stroke="#FF5E2E" stroke-width="10"/>
<rect x="522" y="5" width="341" height="128" rx="64" fill="white" stroke="#3B8340" stroke-width="10"/>
<path d="M165.17 68.6364C165.17 76.3068 163.786 82.9356 161.016 88.5227C158.246 94.1098 154.446 98.4186 149.616 101.449C144.787 104.479 139.271 105.994 133.068 105.994C126.866 105.994 121.349 104.479 116.52 101.449C111.69 98.4186 107.891 94.1098 105.121 88.5227C102.351 82.9356 100.966 76.3068 100.966 68.6364C100.966 60.9659 102.351 54.3371 105.121 48.75C107.891 43.1629 111.69 38.8542 116.52 35.8239C121.349 32.7936 126.866 31.2784 133.068 31.2784C139.271 31.2784 144.787 32.7936 149.616 35.8239C154.446 38.8542 158.246 43.1629 161.016 48.75C163.786 54.3371 165.17 60.9659 165.17 68.6364ZM156.648 68.6364C156.648 62.339 155.594 57.0241 153.487 52.6918C151.404 48.3594 148.575 45.0805 145 42.8551C141.449 40.6297 137.472 39.517 133.068 39.517C128.665 39.517 124.676 40.6297 121.101 42.8551C117.55 45.0805 114.721 48.3594 112.614 52.6918C110.53 57.0241 109.489 62.339 109.489 68.6364C109.489 74.9337 110.53 80.2486 112.614 84.581C114.721 88.9134 117.55 92.1922 121.101 94.4176C124.676 96.643 128.665 97.7557 133.068 97.7557C137.472 97.7557 141.449 96.643 145 94.4176C148.575 92.1922 151.404 88.9134 153.487 84.581C155.594 80.2486 156.648 74.9337 156.648 68.6364ZM245.774 32.2727V105H237.251L197.621 47.8977H196.911V105H188.104V32.2727H196.626L236.399 89.517H237.109V32.2727H245.774Z" fill="white"/>
<path d="M657.17 69.6364C657.17 77.3068 655.786 83.9356 653.016 89.5227C650.246 95.1098 646.446 99.4186 641.616 102.449C636.787 105.479 631.271 106.994 625.068 106.994C618.866 106.994 613.349 105.479 608.52 102.449C603.69 99.4186 599.891 95.1098 597.121 89.5227C594.351 83.9356 592.966 77.3068 592.966 69.6364C592.966 61.9659 594.351 55.3371 597.121 49.75C599.891 44.1629 603.69 39.8542 608.52 36.8239C613.349 33.7936 618.866 32.2784 625.068 32.2784C631.271 32.2784 636.787 33.7936 641.616 36.8239C646.446 39.8542 650.246 44.1629 653.016 49.75C655.786 55.3371 657.17 61.9659 657.17 69.6364ZM648.648 69.6364C648.648 63.339 647.594 58.0241 645.487 53.6918C643.404 49.3594 640.575 46.0805 637 43.8551C633.449 41.6297 629.472 40.517 625.068 40.517C620.665 40.517 616.676 41.6297 613.101 43.8551C609.55 46.0805 606.721 49.3594 604.614 53.6918C602.53 58.0241 601.489 63.339 601.489 69.6364C601.489 75.9337 602.53 81.2486 604.614 85.581C606.721 89.9134 609.55 93.1922 613.101 95.4176C616.676 97.643 620.665 98.7557 625.068 98.7557C629.472 98.7557 633.449 97.643 637 95.4176C640.575 93.1922 643.404 89.9134 645.487 85.581C647.594 81.2486 648.648 75.9337 648.648 69.6364ZM680.104 106V33.2727H723.712V41.0852H688.911V65.6591H720.445V73.4716H688.911V106H680.104ZM746.92 106V33.2727H790.528V41.0852H755.727V65.6591H787.261V73.4716H755.727V106H746.92Z" fill="#3B8340"/>
<path d="M282 133H400.272V5L469.248 133V5H598" stroke="url(#paint0_linear_3437_669)" stroke-width="10" stroke-linecap="round" stroke-linejoin="round"/>
<defs>
<linearGradient id="paint0_linear_3437_669" x1="364.284" y1="65.184" x2="500.503" y2="65.184" gradientUnits="userSpaceOnUse">
<stop stop-color="#FF5E2E"/>
<stop offset="1" stop-color="#3B8340"/>
</linearGradient>
</defs>
</svg>
