<svg width="148" height="34" viewBox="0 0 148 34" fill="none" xmlns="http://www.w3.org/2000/svg" >
<path fill-rule="evenodd" clip-rule="evenodd" d="M16.2659 32.0827C24.6375 32.0827 31.4216 25.2979 31.4216 16.9271C31.4216 8.55628 24.6375 1.77393 16.2659 1.77393C7.89509 1.77393 1.10938 8.55628 1.10938 16.9271C1.10938 25.2979 7.89509 32.0827 16.2659 32.0827Z" fill="white"/>
<path fill-rule="evenodd" clip-rule="evenodd" d="M0.148438 16.9268C0.148438 25.8145 7.37875 33.0457 16.2664 33.0457C25.1541 33.0457 32.3844 25.8145 32.3844 16.9268C32.3844 8.0417 25.1541 0.810547 16.2664 0.810547C7.37791 0.810547 0.148438 8.0417 0.148438 16.9268ZM2.07221 16.9268C2.07221 9.1015 8.43939 2.73516 16.2664 2.73516C24.0926 2.73516 30.4606 9.1015 30.4606 16.9268C30.4606 24.753 24.0926 31.121 16.2664 31.121C8.44023 31.121 2.07221 24.753 2.07221 16.9268Z" fill="black"/>
<path fill-rule="evenodd" clip-rule="evenodd" d="M16.2648 23.8563C20.0182 23.8563 23.0472 20.6786 23.0472 16.9269C23.0485 16.0359 22.874 15.1533 22.5336 14.3298C22.1932 13.5064 21.6937 12.7581 21.0636 12.1281C20.4336 11.498 19.6853 10.9985 18.8619 10.6581C18.0384 10.3177 17.1558 10.1432 16.2648 10.1445C12.5122 10.1445 9.33789 13.1735 9.33789 16.9269C9.33789 20.6786 12.5122 23.8563 16.2648 23.8563Z" fill="white"/>
<path fill-rule="evenodd" clip-rule="evenodd" d="M8.375 16.9268C8.375 21.2046 11.9889 24.8185 16.2651 24.8185C20.5353 24.8185 24.0106 21.2778 24.0106 16.9268C24.0106 12.6565 20.5353 9.18213 16.2651 9.18213C11.9141 9.18213 8.375 12.6565 8.375 16.9268ZM10.2996 16.9268C10.2996 13.718 12.9764 11.1059 16.2651 11.1059C17.8084 11.1075 19.288 11.7212 20.3793 12.8125C21.4706 13.9038 22.0844 15.3835 22.086 16.9268C22.086 20.1608 19.4209 22.8939 16.2651 22.8939C13.0319 22.8939 10.2996 20.1608 10.2996 16.9268Z" fill="black"/>
<path fill-rule="evenodd" clip-rule="evenodd" d="M11.8535 16.927C11.8535 19.361 13.8328 21.3394 16.2667 21.3394C18.7006 21.3394 20.6815 19.361 20.6815 16.927C20.6815 14.4923 18.7014 12.5122 16.2667 12.5122C13.8319 12.5122 11.8535 14.4923 11.8535 16.927Z" fill="#3A823F"/>
<path fill-rule="evenodd" clip-rule="evenodd" d="M84.8248 32.2267C93.1964 32.2267 99.9821 25.4418 99.9821 17.0711C99.9821 8.70027 93.1964 1.91455 84.8248 1.91455C76.4548 1.91455 69.6699 8.70027 69.6699 17.0711C69.6699 25.4418 76.4548 32.2267 84.8248 32.2267Z" fill="white"/>
<path fill-rule="evenodd" clip-rule="evenodd" d="M68.709 17.0711C68.709 25.9588 75.9385 33.1899 84.8253 33.1899C93.7138 33.1899 100.945 25.9588 100.945 17.0711C100.945 8.18259 93.7138 0.953125 84.8253 0.953125C75.9385 0.953125 68.709 8.18259 68.709 17.0711ZM70.6336 17.0711C70.6336 9.24491 77.0008 2.87689 84.8253 2.87689C92.6515 2.87689 99.0195 9.24491 99.0195 17.0711C99.0195 24.8973 92.6523 31.2653 84.8253 31.2653C76.9999 31.2653 70.6336 24.8964 70.6336 17.0711Z" fill="black"/>
<path fill-rule="evenodd" clip-rule="evenodd" d="M84.8254 23.8563C85.7165 23.8571 86.5991 23.6821 87.4226 23.3414C88.2461 23.0007 88.9943 22.501 89.6244 21.8708C90.2545 21.2406 90.7542 20.4923 91.0948 19.6688C91.4354 18.8452 91.6103 17.9626 91.6094 17.0714C91.6094 13.3189 88.5779 10.1445 84.8254 10.1445C80.9282 10.1445 77.8984 13.3189 77.8984 17.0714C77.8984 20.8232 80.9282 23.8563 84.8254 23.8563Z" fill="white"/>
<path fill-rule="evenodd" clip-rule="evenodd" d="M76.9355 17.0713C76.9355 21.4156 80.4007 24.8185 84.8248 24.8185C89.0959 24.8185 92.5728 21.3425 92.5728 17.0713C92.5728 12.7212 89.0959 9.18213 84.8248 9.18213C80.4746 9.18213 76.9355 12.7212 76.9355 17.0713ZM78.8593 17.0713C78.8611 15.4898 79.4902 13.9735 80.6085 12.8551C81.7269 11.7368 83.2432 11.1077 84.8248 11.1059C87.9815 11.1059 90.6473 13.8373 90.6473 17.0713C90.6458 18.6151 90.0318 20.0952 88.9402 21.1868C87.8486 22.2784 86.3685 22.8924 84.8248 22.8939C81.4807 22.8939 78.8593 20.3365 78.8593 17.0713Z" fill="black"/>
<path fill-rule="evenodd" clip-rule="evenodd" d="M80.2656 17.0714C80.2656 19.4658 82.3516 21.4862 84.8242 21.4862C85.9947 21.4849 87.117 21.0193 87.9448 20.1917C88.7725 19.3641 89.2383 18.2419 89.2399 17.0714C89.2383 15.901 88.7725 14.779 87.9447 13.9516C87.1168 13.1243 85.9946 12.6591 84.8242 12.6582C82.3516 12.6582 80.2656 14.6795 80.2656 17.0714Z" fill="#FF5E2E"/>
<path fill-rule="evenodd" clip-rule="evenodd" d="M34.3041 2.63867H44.265L56.9658 14.4754V2.63867H66.6384V31.2153H58.8425L44.697 17.5044V31.3616H34.1621L34.3041 2.63867Z" fill="white"/>
<path fill-rule="evenodd" clip-rule="evenodd" d="M66.6409 1.67627H56.006V12.2633C53.541 9.96722 44.6458 1.67627 44.6458 1.67627H33.3494L33.1973 32.3246H45.6627V19.7777C48.2176 22.2528 58.4559 32.1775 58.4559 32.1775H67.6032V1.67627H66.6409ZM65.6778 3.60004V30.2529H59.2358L43.7372 15.2301V30.3992H35.1311L35.2639 3.60004H43.8877L57.9298 16.6891V3.60004H65.6778Z" fill="black"/>
<path fill-rule="evenodd" clip-rule="evenodd" d="M102.578 2.63867H123.364V8.70077H112.684V14.0384H122.499V20.2451H112.538V31.3616H102.724L102.578 2.63867Z" fill="white"/>
<path fill-rule="evenodd" clip-rule="evenodd" d="M123.364 1.67613H101.611L101.768 32.3245H113.503V21.208H123.462V13.0759H113.647V9.66201H124.328V1.67529L123.364 1.67613ZM122.403 3.5999V7.7374H111.724V14.9996H121.538V19.2825H111.577V30.399H103.681L103.547 3.5999H122.403Z" fill="black"/>
<path fill-rule="evenodd" clip-rule="evenodd" d="M126.25 2.49512H146.89V8.70093H136.21V14.0386H146.025V20.2452H136.21V31.2155H126.25V2.49512Z" fill="white"/>
<path fill-rule="evenodd" clip-rule="evenodd" d="M146.889 1.5316H125.287V32.1766H137.172V21.2072H146.986V13.0751H137.172V9.66119H147.851V1.53076L146.889 1.5316ZM145.927 3.45705V7.73826H135.248V15.0005H145.061V19.2834H135.248V30.2537H127.212V3.45705H145.927Z" fill="black"/>
</svg>
